HIERARCHY
ROOT root
{
	OFFSET 0.000000 0.000000 0.000000
	CHANNELS 6 Xposition Yposition Zposition Zrotation Yrotation Xrotation
	JOINT lhip
	{
		OFFSET 0.058581 -0.082280 -0.017664
		CHANNELS 3 Zrotation Yrotation Xrotation
		JOINT lknee
		{
			OFFSET 0.043451 -0.386469 0.008037
			CHANNELS 3 Zrotation Yrotation Xrotation
			JOINT lankle
			{
				OFFSET -0.014790 -0.426874 -0.037428
				CHANNELS 3 Zrotation Yrotation Xrotation
				JOINT ltoe
				{
					OFFSET 0.041054 -0.060286 0.122042
					CHANNELS 3 Zrotation Yrotation Xrotation
					End Site
					{
						OFFSET 0.000000 0.000000 0.000000
					}
				}
			}
		}
	}
	JOINT rhip
	{
		OFFSET -0.060310 -0.090513 -0.013543
		CHANNELS 3 Zrotation Yrotation Xrotation
		JOINT rknee
		{
			OFFSET -0.043257 -0.383688 -0.004843
			CHANNELS 3 Zrotation Yrotation Xrotation
			JOINT rankle
			{
				OFFSET 0.019056 -0.420046 -0.034562
				CHANNELS 3 Zrotation Yrotation Xrotation
				JOINT rtoe
				{
					OFFSET -0.034840 -0.062106 0.130323
					CHANNELS 3 Zrotation Yrotation Xrotation
					End Site
					{
						OFFSET 0.000000 0.000000 0.000000
					}
				}
			}
		}
	}
	JOINT lowerback
	{
		OFFSET 0.004439 0.124404 -0.038385
		CHANNELS 3 Zrotation Yrotation Xrotation
		JOINT upperback
		{
			OFFSET 0.004488 0.137956 0.026820
			CHANNELS 3 Zrotation Yrotation Xrotation
			JOINT chest
			{
				OFFSET -0.002265 0.056032 0.002855
				CHANNELS 3 Zrotation Yrotation Xrotation
				JOINT lowerneck
				{
					OFFSET -0.013390 0.211636 -0.033468
					CHANNELS 3 Zrotation Yrotation Xrotation
					JOINT upperneck
					{
						OFFSET 0.010113 0.088937 0.050410
						CHANNELS 3 Zrotation Yrotation Xrotation
						End Site
						{
							OFFSET 0.000000 0.000000 0.000000
						}
					}
				}
				JOINT lclavicle
				{
					OFFSET 0.071702 0.114000 -0.018898
					CHANNELS 3 Zrotation Yrotation Xrotation
					JOINT lshoulder
					{
						OFFSET 0.122921 0.045205 -0.019046
						CHANNELS 3 Zrotation Yrotation Xrotation
						JOINT lelbow
						{
							OFFSET 0.255332 -0.015649 -0.022946
							CHANNELS 3 Zrotation Yrotation Xrotation
							JOINT lwrist
							{
								OFFSET 0.265709 0.012698 -0.007375
								CHANNELS 3 Zrotation Yrotation Xrotation
								End Site
								{
									OFFSET 0.000000 0.000000 0.000000
								}
							}
						}
					}
				}
				JOINT rclavicle
				{
					OFFSET -0.082954 0.112472 -0.023707
					CHANNELS 3 Zrotation Yrotation Xrotation
					JOINT rshoulder
					{
						OFFSET -0.113228 0.046853 -0.008472
						CHANNELS 3 Zrotation Yrotation Xrotation
						JOINT relbow
						{
							OFFSET -0.260127 -0.014369 -0.031269
							CHANNELS 3 Zrotation Yrotation Xrotation
							JOINT rwrist
							{
								OFFSET -0.269108 0.006794 -0.006027
								CHANNELS 3 Zrotation Yrotation Xrotation
								End Site
								{
									OFFSET 0.000000 0.000000 0.000000
								}
							}
						}
					}
				}
			}
		}
	}
}
MOTION
Frames: 7
Frame Time: 0.033333
-0.113211 0.837070 0.923783 -14.900632 -7.354369 96.746904 17.744796 10.962604 -18.868396 -5.325485 8.191515 20.789565 -7.668779 10.780567 -9.155799 0.000000 -0.000000 0.000000 -15.632570 -9.170746 -39.587718 -1.775334 -12.142949 54.163980 4.133352 -10.321547 -21.145796 0.000000 -0.000000 0.000000 -0.030983 -6.140949 33.318740 0.326786 -2.833422 -3.392416 -1.739117 -1.726774 -3.928145 -2.034753 -7.813296 -22.356936 -0.144780 -20.871309 4.793826 -32.854553 -6.753043 6.120060 -30.518658 -7.193209 9.155874 2.653942 -49.275080 1.384782 -0.224815 -16.032420 -10.603508 33.117946 14.900443 3.599849 36.628766 9.872295 8.257179 -13.630057 31.890193 -23.696956 7.284858 12.089658 -14.280634 
-0.109191 0.834664 0.926120 -14.139446 -7.097223 96.849218 17.606085 10.832733 -18.100077 -5.482940 6.856980 16.594181 -8.314430 9.713513 -6.950480 0.000000 -0.000000 0.000000 -15.692489 -9.307818 -38.996801 -1.792193 -12.421962 53.387825 4.063818 -10.690953 -20.711127 0.000000 -0.000000 0.000000 0.262387 -6.204985 32.135611 0.165921 -2.596009 -2.823400 -1.807244 -1.608165 -3.894517 -2.090697 -7.652413 -22.049704 -0.275864 -20.703391 4.850024 -33.071027 -6.283498 5.911281 -31.202461 -7.127648 9.464629 3.316266 -48.594051 0.750494 0.092848 -15.645258 -10.184163 33.220518 14.717534 3.362305 36.233236 10.152052 7.969870 -13.830756 30.721130 -24.223905 7.609312 11.800332 -13.661450 
-0.103463 0.831453 0.928333 -13.467711 -6.735922 96.866441 17.282798 10.766874 -17.677224 -5.199085 6.469886 14.723840 -7.893982 9.780837 -6.382097 0.000000 -0.000000 0.000000 -15.713743 -9.345559 -38.240857 -1.863838 -12.599834 52.500389 4.093903 -11.060812 -20.411729 0.000000 -0.000000 0.000000 0.535711 -6.123995 31.183341 0.102612 -2.445781 -2.691585 -1.804354 -1.568263 -3.816115 -2.096316 -7.688420 -21.855470 -0.640954 -20.398368 5.147046 -33.133497 -5.803279 5.920245 -31.940844 -7.041504 9.708906 3.222627 -48.045663 1.201325 0.270771 -15.865764 -10.184396 33.260047 14.614323 3.412016 35.850805 10.430565 7.652094 -13.757970 29.397774 -24.705653 7.277702 12.012842 -13.415784 
-0.095794 0.828186 0.931275 -12.878765 -6.371657 96.916979 16.782328 10.488628 -17.443281 -4.908394 6.661601 14.122921 -7.205170 9.591694 -6.677539 0.000000 -0.000000 0.000000 -15.709447 -9.275726 -37.463210 -2.055484 -12.524752 51.367626 4.349127 -11.441585 -19.770349 0.000000 -0.000000 0.000000 0.606170 -5.950045 30.549924 0.087232 -2.192482 -2.761764 -1.810202 -1.530594 -3.689721 -1.927659 -7.885183 -22.054557 -1.131356 -20.476783 6.014348 -33.282911 -5.270885 5.747863 -32.443324 -7.107651 10.045329 2.982592 -47.952617 2.005438 -0.591332 -16.349532 -9.976359 33.549867 14.351702 3.318642 35.371954 10.795023 7.501214 -13.764746 28.109949 -25.374894 7.460749 11.947634 -13.074852 
-0.086428 0.824316 0.935088 -12.419460 -5.906196 96.854800 16.347330 10.741488 -17.224996 -4.781601 6.731787 13.252987 -6.608942 9.211361 -6.284221 0.000000 -0.000000 0.000000 -15.663890 -9.215383 -36.372815 -2.235807 -12.432982 49.738362 4.401186 -11.590656 -18.672590 0.000000 -0.000000 0.000000 0.685644 -5.640659 29.899081 0.107887 -2.052968 -2.660592 -1.731972 -1.393187 -3.623343 -1.810041 -8.097864 -22.070713 -1.269478 -20.447823 6.417594 -33.443973 -5.083639 5.933581 -33.094448 -7.052833 10.145705 2.788113 -47.884853 2.840963 -1.213839 -16.584902 -9.687782 33.748075 14.220103 3.512870 35.226740 11.069261 7.038642 -14.732195 27.246298 -26.465223 7.191930 11.867287 -12.429620 
-0.076051 0.818743 0.939245 -11.689882 -5.597071 96.736028 15.705423 11.219506 -17.323570 -4.861871 6.375624 13.005132 -6.087624 8.615376 -6.040093 0.000000 -0.000000 0.000000 -15.796392 -9.686974 -34.971643 -2.555922 -12.305363 48.059536 4.753508 -11.373118 -17.732487 0.000000 -0.000000 0.000000 0.665151 -5.347947 29.315176 0.182120 -1.996634 -2.707915 -1.682926 -1.365937 -3.686066 -1.773982 -8.485551 -21.713818 -1.356606 -20.520679 6.718207 -33.510767 -4.614956 5.852307 -33.760127 -6.989569 10.618032 2.050697 -47.809018 4.407056 -1.268229 -16.807105 -9.559197 34.017745 13.759492 3.473208 35.314421 11.337970 6.651492 -14.915517 25.842537 -27.188032 7.453644 11.818339 -12.113394 
-0.064813 0.812804 0.943694 -11.121308 -5.127500 96.797870 15.394254 11.091277 -17.490715 -4.978157 6.554566 13.035522 -5.813802 8.187709 -6.440189 0.000000 -0.000000 0.000000 -15.876824 -9.933974 -33.587276 -2.702790 -12.371484 46.018213 5.131631 -11.422608 -16.617168 0.000000 -0.000000 0.000000 0.707966 -4.905353 28.458017 0.310433 -2.046273 -2.676822 -1.557138 -1.310052 -3.723211 -1.784834 -8.765358 -21.350986 -1.544490 -20.552474 7.039556 -33.447104 -4.103596 5.980692 -34.655357 -6.914883 10.802323 1.806341 -47.941425 5.551808 -1.513611 -16.770456 -9.382601 34.194999 13.441883 3.480017 35.672060 11.353557 6.421339 -15.357804 24.926149 -27.818218 7.545835 11.665613 -12.182546 
